<svg width="131" height="152" viewBox="0 0 131 152" fill="none" xmlns="http://www.w3.org/2000/svg">
<mask id="mask0_5_468" style="mask-type:luminance" maskUnits="userSpaceOnUse" x="0" y="0" width="131" height="152">
<path d="M0 0H131V152H0V0Z" fill="white"/>
</mask>
<g mask="url(#mask0_5_468)">
<mask id="mask1_5_468" style="mask-type:luminance" maskUnits="userSpaceOnUse" x="0" y="0" width="132" height="153">
<path d="M29.9844 71.6145L27.7135 70.4791C29.0729 60.8073 34.0625 52.2864 41.2552 46.3437L45.875 50.1927C47.4062 51.4635 48.7969 52.927 50.0104 54.5416L52.0781 57.302C52.4323 57.7708 52.3438 58.2395 52.2552 58.4739C52.1719 58.7135 51.9479 59.1302 51.375 59.2708L50.9427 59.3802C47.3854 60.2708 44.901 63.4531 44.901 67.1198V70.25L44.5885 71.1927C44.375 71.8281 43.8854 72.3125 43.2448 72.5104C42.599 72.7135 41.9219 72.5989 41.3854 72.1927L37.901 69.5833C36.8958 68.8281 35.625 68.5677 34.401 68.8541C33.1823 69.1458 32.1615 69.9531 31.6042 71.0677C31.3542 71.5625 30.8802 71.7395 30.5208 71.7395C30.3333 71.7395 30.151 71.6979 29.9844 71.6145ZM76.7656 49.9323C78.2969 51.4687 79.1458 53.5104 79.1458 55.6823C79.1458 57.5781 78.474 59.427 77.2604 60.8854L72.5052 66.5937C70.2396 69.3125 69.7969 73.1198 71.3802 76.2864C72.2708 78.0729 74.0729 79.1823 76.0729 79.1823C77.2083 79.1823 78.2865 78.8229 79.2031 78.1354C80.8438 76.901 82.8802 76.2239 84.9323 76.2239C85.7135 76.2239 86.4948 76.3177 87.25 76.5104C88.3438 76.7812 89.4635 76.9218 90.5885 76.9218C93.3177 76.9218 95.9583 76.1198 98.2292 74.6093C99.5938 73.6979 101.172 73.0729 102.792 72.802L103.599 72.6718C102.479 58.9687 94.0938 47.2916 82.3177 41.5052L76.9427 45.9843C76.3594 46.4739 76.0156 47.1562 75.9844 47.9166C75.9479 48.677 76.224 49.3958 76.7656 49.9323ZM65.5312 37.6145C69.3542 37.6145 73.0417 38.1823 76.5208 39.2291L73.4479 41.7916C71.6979 43.25 70.6354 45.3906 70.5312 47.6666C70.4271 49.9479 71.2917 52.177 72.9062 53.7916C73.4115 54.2968 73.6875 54.9687 73.6875 55.6823C73.6875 56.125 73.5781 56.776 73.0677 57.3958L68.3125 63.0989C64.6562 67.4895 63.9479 73.6198 66.5 78.7291C68.3229 82.375 71.9948 84.6406 76.0729 84.6406C78.3958 84.6406 80.6094 83.901 82.4792 82.5C83.4479 81.7708 84.7292 81.5 85.9271 81.802C87.4531 82.1823 89.0208 82.375 90.5885 82.375C94.3958 82.375 98.0833 81.2604 101.26 79.1458C101.974 78.6666 102.802 78.3385 103.651 78.1927C103.396 82.3698 102.464 86.3645 100.964 90.0677C99.6042 89.8125 98.2188 89.677 96.8281 89.677C94.0104 89.677 91.25 90.2083 88.625 91.2604C83.8281 93.1823 81.1562 98.4062 82.4115 103.411L83.8854 109.302C78.4375 112.297 72.1823 114.005 65.5312 114.005C44.6667 114.005 27.6615 97.1875 27.349 76.3958L27.5469 76.4948C28.4844 76.9635 29.4844 77.1979 30.5208 77.1979C32.5625 77.1979 34.4375 76.2812 35.6875 74.7395L38.1146 76.5573C39.4427 77.5573 41.0052 78.0729 42.599 78.0729C43.3542 78.0729 44.1198 77.9531 44.8698 77.7187C47.2083 76.9895 48.9896 75.2395 49.7656 72.9166L50.2188 71.5625C50.3125 71.2812 50.3594 70.9895 50.3594 70.6979V67.1198C50.3594 65.9635 51.1406 64.9583 52.2656 64.677L52.6979 64.5677C54.8854 64.0208 56.6458 62.427 57.401 60.302C58.151 58.177 57.7969 55.8333 56.4427 54.0312L54.375 51.2708C52.901 49.3125 51.2188 47.5416 49.3646 46L45.8646 43.0833C51.6146 39.6145 58.3438 37.6145 65.5312 37.6145ZM62.3385 86.4323C61.9583 86.276 61.599 86.0781 61.2708 85.8281L58.9219 84.0677C56.5104 82.2604 53.4479 81.6198 50.5156 82.3125C47.5833 83.0052 45.125 84.9479 43.7812 87.6406L43.4115 88.375C42.7135 89.776 42.3438 91.3437 42.3438 92.9062V98.3229C42.3438 101.026 43.3958 103.573 45.3125 105.484L47.8542 108.026C49.7656 109.943 52.3802 110.99 55.0365 110.99C55.8542 110.99 56.6719 110.891 57.474 110.693L62.7552 109.37C63.125 109.281 63.5052 109.234 63.8854 109.234H66.7344C69.7812 109.234 72.6354 107.88 74.5677 105.526C76.5 103.167 77.2656 100.099 76.6667 97.1145C75.9948 93.7448 73.6875 90.9687 70.4948 89.6927L62.3385 86.4323ZM58 90.1927L55.6458 88.4323C54.5365 87.5989 53.1198 87.302 51.7656 87.6198C50.4167 87.9427 49.2812 88.8385 48.6615 90.0833L48.2917 90.8125C47.9688 91.4583 47.8021 92.1823 47.8021 92.9062V98.3229C47.8021 99.5677 48.2865 100.745 49.1719 101.625L51.7083 104.167C52.8646 105.323 54.5677 105.792 56.151 105.396L61.4323 104.078C62.2344 103.875 63.0573 103.776 63.8854 103.776H66.7344C68.1406 103.776 69.4583 103.151 70.349 102.062C71.2396 100.979 71.5938 99.5625 71.3177 98.1823C71.0052 96.6302 69.9427 95.3489 68.4688 94.7604L60.3125 91.4948C59.4896 91.1666 58.7083 90.7291 58 90.1927ZM90.651 96.3229C88.375 97.2343 87.1094 99.7135 87.7031 102.089L88.7188 106.141C92.6094 103.161 95.9115 99.4479 98.4219 95.2135C97.8906 95.1614 97.3594 95.1354 96.8281 95.1354C94.7031 95.1354 92.625 95.5364 90.651 96.3229ZM131.01 23.9739V66.8281C131.01 85.6198 125.156 103.573 114.073 118.75C102.995 133.927 87.6823 144.979 69.7812 150.703L65.5312 152.062L61.2865 150.703C43.3854 144.979 28.0729 133.927 16.9896 118.75C5.91146 103.573 0.0572891 85.6198 0.0572891 66.8281V23.9739H8.29166C23.0937 23.9739 37.3542 19.5208 49.5208 11.0989L65.5312 0.010376L81.5469 11.0989C93.7135 19.5208 107.974 23.9739 122.776 23.9739H131.01ZM125.552 32.1614C125.552 30.6562 124.333 29.4323 122.828 29.4323C104.089 29.4323 85.7135 22.9843 71.0833 11.2812L67.2396 8.20308C66.2396 7.40621 64.8281 7.40621 63.8281 8.20308L59.9844 11.2812C45.3542 22.9843 26.9792 29.4323 8.23958 29.4323C6.73437 29.4323 5.51562 30.6562 5.51562 32.1614V65.2604C5.51562 99.2812 25.7187 129.922 56.9896 143.323L64.4583 146.526C64.8021 146.672 65.1667 146.745 65.5312 146.745C65.901 146.745 66.2656 146.672 66.6094 146.526L74.0781 143.323C105.349 129.922 125.552 99.2812 125.552 65.2604V32.1614ZM67.6771 15.5416C82.5625 27.4479 101.078 34.25 120.099 34.8437V65.2604C120.099 97.0937 101.193 125.766 71.9323 138.307L65.5312 141.047L59.1354 138.307C29.875 125.766 10.9687 97.0937 10.9687 65.2604V34.8437C29.9896 34.25 48.5052 27.4479 63.3906 15.5416L65.5312 13.8281L67.6771 15.5416ZM65.5312 32.1614C41.4635 32.1614 21.8802 51.7395 21.8802 75.8125C21.8802 99.8802 41.4635 119.464 65.5312 119.464C89.6042 119.464 109.182 99.8802 109.182 75.8125C109.182 51.7395 89.6042 32.1614 65.5312 32.1614Z" fill="white"/>
</mask>
<g mask="url(#mask1_5_468)">
<path d="M0.0572891 0.010376V152H131V0.010376H0.0572891Z" fill="url(#paint0_linear_5_468)"/>
</g>
</g>
<defs>
<linearGradient id="paint0_linear_5_468" x1="-11.3794" y1="140.565" x2="130.088" y2="-0.902475" gradientUnits="userSpaceOnUse">
<stop stop-color="#89F1FF"/>
<stop offset="0.125" stop-color="#89F1FF"/>
<stop offset="0.15625" stop-color="#89F1FF"/>
<stop offset="0.171875" stop-color="#89F1FF"/>
<stop offset="0.175781" stop-color="#8AF1FF"/>
<stop offset="0.179687" stop-color="#8BF1FF"/>
<stop offset="0.183594" stop-color="#8DF1FF"/>
<stop offset="0.1875" stop-color="#8EF2FF"/>
<stop offset="0.191406" stop-color="#8FF2FF"/>
<stop offset="0.195312" stop-color="#90F2FF"/>
<stop offset="0.199219" stop-color="#91F2FF"/>
<stop offset="0.203125" stop-color="#93F2FF"/>
<stop offset="0.207031" stop-color="#94F2FF"/>
<stop offset="0.210937" stop-color="#95F2FF"/>
<stop offset="0.214844" stop-color="#96F3FF"/>
<stop offset="0.21875" stop-color="#97F3FF"/>
<stop offset="0.222656" stop-color="#99F3FF"/>
<stop offset="0.226562" stop-color="#9AF3FF"/>
<stop offset="0.230469" stop-color="#9BF3FF"/>
<stop offset="0.234375" stop-color="#9CF3FF"/>
<stop offset="0.238281" stop-color="#9EF3FF"/>
<stop offset="0.242187" stop-color="#9FF4FF"/>
<stop offset="0.246094" stop-color="#A0F4FF"/>
<stop offset="0.25" stop-color="#A1F4FF"/>
<stop offset="0.253906" stop-color="#A2F4FF"/>
<stop offset="0.257812" stop-color="#A4F4FF"/>
<stop offset="0.261719" stop-color="#A5F4FF"/>
<stop offset="0.265625" stop-color="#A6F4FF"/>
<stop offset="0.269531" stop-color="#A7F5FF"/>
<stop offset="0.273438" stop-color="#A9F5FF"/>
<stop offset="0.277344" stop-color="#AAF5FF"/>
<stop offset="0.28125" stop-color="#ABF5FF"/>
<stop offset="0.285156" stop-color="#ACF5FF"/>
<stop offset="0.289062" stop-color="#ADF5FF"/>
<stop offset="0.292969" stop-color="#AFF5FF"/>
<stop offset="0.296875" stop-color="#B0F6FF"/>
<stop offset="0.300781" stop-color="#B1F6FF"/>
<stop offset="0.304687" stop-color="#B2F6FF"/>
<stop offset="0.308594" stop-color="#B3F6FF"/>
<stop offset="0.3125" stop-color="#B5F6FF"/>
<stop offset="0.316406" stop-color="#B6F6FF"/>
<stop offset="0.320312" stop-color="#B7F6FF"/>
<stop offset="0.324219" stop-color="#B8F7FF"/>
<stop offset="0.328125" stop-color="#BAF7FF"/>
<stop offset="0.332031" stop-color="#BBF7FF"/>
<stop offset="0.335937" stop-color="#BCF7FF"/>
<stop offset="0.339844" stop-color="#BDF7FF"/>
<stop offset="0.34375" stop-color="#BEF7FF"/>
<stop offset="0.347656" stop-color="#C0F7FF"/>
<stop offset="0.351562" stop-color="#C1F8FF"/>
<stop offset="0.355469" stop-color="#C2F8FF"/>
<stop offset="0.359375" stop-color="#C3F8FF"/>
<stop offset="0.363281" stop-color="#C4F8FF"/>
<stop offset="0.367187" stop-color="#C6F8FF"/>
<stop offset="0.371094" stop-color="#C7F8FF"/>
<stop offset="0.375" stop-color="#C8F8FF"/>
<stop offset="0.378906" stop-color="#C9F9FF"/>
<stop offset="0.382812" stop-color="#CBF9FF"/>
<stop offset="0.386719" stop-color="#CCF9FF"/>
<stop offset="0.390625" stop-color="#CDF9FF"/>
<stop offset="0.394531" stop-color="#CEF9FF"/>
<stop offset="0.398437" stop-color="#CFF9FF"/>
<stop offset="0.402344" stop-color="#D1F9FF"/>
<stop offset="0.40625" stop-color="#D2FAFF"/>
<stop offset="0.410156" stop-color="#D3FAFF"/>
<stop offset="0.414062" stop-color="#D4FAFF"/>
<stop offset="0.417969" stop-color="#D6FAFF"/>
<stop offset="0.421875" stop-color="#D7FAFF"/>
<stop offset="0.425781" stop-color="#D8FAFF"/>
<stop offset="0.429687" stop-color="#D9FBFF"/>
<stop offset="0.433594" stop-color="#DAFBFF"/>
<stop offset="0.4375" stop-color="#DCFBFF"/>
<stop offset="0.441406" stop-color="#DDFBFF"/>
<stop offset="0.445312" stop-color="#DEFBFF"/>
<stop offset="0.449219" stop-color="#DFFBFF"/>
<stop offset="0.453125" stop-color="#E0FBFF"/>
<stop offset="0.457031" stop-color="#E2FCFF"/>
<stop offset="0.460938" stop-color="#E3FCFF"/>
<stop offset="0.464844" stop-color="#E4FCFF"/>
<stop offset="0.46875" stop-color="#E5FCFF"/>
<stop offset="0.472656" stop-color="#E7FCFF"/>
<stop offset="0.476562" stop-color="#E8FCFF"/>
<stop offset="0.480469" stop-color="#E9FCFF"/>
<stop offset="0.484375" stop-color="#EAFDFF"/>
<stop offset="0.488281" stop-color="#EBFDFF"/>
<stop offset="0.492187" stop-color="#EDFDFF"/>
<stop offset="0.496094" stop-color="#EEFDFF"/>
<stop offset="0.5" stop-color="#EFFDFF"/>
<stop offset="0.503906" stop-color="#F0FDFF"/>
<stop offset="0.507812" stop-color="#F2FDFF"/>
<stop offset="0.511719" stop-color="#F3FEFF"/>
<stop offset="0.515625" stop-color="#F4FEFF"/>
<stop offset="0.519531" stop-color="#F5FEFF"/>
<stop offset="0.523437" stop-color="#F6FEFF"/>
<stop offset="0.527344" stop-color="#F8FEFF"/>
<stop offset="0.53125" stop-color="#F9FEFF"/>
<stop offset="0.535156" stop-color="#FAFEFF"/>
<stop offset="0.539062" stop-color="#FBFFFF"/>
<stop offset="0.542969" stop-color="#FCFFFF"/>
<stop offset="0.546875" stop-color="#FEFFFF"/>
<stop offset="0.550781" stop-color="#FEFFFF"/>
<stop offset="0.554688" stop-color="white"/>
<stop offset="0.5625" stop-color="white"/>
<stop offset="0.625" stop-color="white"/>
<stop offset="0.75" stop-color="white"/>
<stop offset="1" stop-color="white"/>
</linearGradient>
</defs>
</svg>
