<svg width="353" height="152" viewBox="0 0 353 152" fill="none" xmlns="http://www.w3.org/2000/svg">
<mask id="mask0_5_463" style="mask-type:luminance" maskUnits="userSpaceOnUse" x="0" y="0" width="132" height="152">
<path d="M0.0729141 0H131.073V152H0.0729141V0Z" fill="white"/>
</mask>
<g mask="url(#mask0_5_463)">
<mask id="mask1_5_463" style="mask-type:luminance" maskUnits="userSpaceOnUse" x="0" y="0" width="132" height="153">
<path d="M30.0573 71.6147L27.7865 70.4793C29.1458 60.8074 34.1354 52.2865 41.3281 46.3438L45.9479 50.1928C47.4792 51.4636 48.8698 52.9272 50.0833 54.5417L52.151 57.3022C52.5052 57.7709 52.4167 58.2397 52.3281 58.474C52.2448 58.7136 52.0208 59.1303 51.4479 59.2709L51.0156 59.3803C47.4583 60.2709 44.974 63.4532 44.974 67.1199V70.2501L44.6615 71.1928C44.4479 71.8282 43.9583 72.3126 43.3177 72.5105C42.6719 72.7136 41.9948 72.599 41.4583 72.1928L37.974 69.5834C36.9687 68.8282 35.6979 68.5678 34.474 68.8543C33.2552 69.1459 32.2344 69.9532 31.6771 71.0678C31.4271 71.5626 30.9531 71.7397 30.5937 71.7397C30.4062 71.7397 30.224 71.698 30.0573 71.6147ZM76.8385 49.9324C78.3698 51.4688 79.2187 53.5105 79.2187 55.6824C79.2187 57.5782 78.5469 59.4272 77.3333 60.8855L72.5781 66.5938C70.3125 69.3126 69.8698 73.1199 71.4531 76.2865C72.3437 78.073 74.1458 79.1824 76.1458 79.1824C77.2812 79.1824 78.3594 78.823 79.276 78.1355C80.9167 76.9011 82.9531 76.224 85.0052 76.224C85.7865 76.224 86.5677 76.3178 87.3229 76.5105C88.4167 76.7813 89.5365 76.922 90.6615 76.922C93.3906 76.922 96.0312 76.1199 98.3021 74.6095C99.6667 73.698 101.245 73.073 102.865 72.8022L103.672 72.672C102.552 58.9688 94.1667 47.2918 82.3906 41.5053L77.0156 45.9845C76.4323 46.474 76.0885 47.1563 76.0573 47.9167C76.0208 48.6772 76.2969 49.3959 76.8385 49.9324ZM65.6042 37.6147C69.4271 37.6147 73.1146 38.1824 76.5937 39.2292L73.5208 41.7917C71.7708 43.2501 70.7083 45.3907 70.6042 47.6667C70.5 49.948 71.3646 52.1772 72.9792 53.7917C73.4844 54.297 73.7604 54.9688 73.7604 55.6824C73.7604 56.1251 73.651 56.7761 73.1406 57.3959L68.3854 63.099C64.7292 67.4897 64.0208 73.6199 66.5729 78.7293C68.3958 82.3751 72.0677 84.6407 76.1458 84.6407C78.4687 84.6407 80.6823 83.9011 82.5521 82.5001C83.5208 81.7709 84.8021 81.5001 86 81.8022C87.526 82.1824 89.0937 82.3751 90.6615 82.3751C94.4687 82.3751 98.1562 81.2605 101.333 79.1459C102.047 78.6668 102.875 78.3386 103.724 78.1928C103.469 82.3699 102.536 86.3647 101.036 90.0678C99.6771 89.8126 98.2917 89.6772 96.901 89.6772C94.0833 89.6772 91.3229 90.2084 88.6979 91.2605C83.901 93.1824 81.2292 98.4063 82.4844 103.412L83.9583 109.302C78.5104 112.297 72.2552 114.005 65.6042 114.005C44.7396 114.005 27.7344 97.1876 27.4219 76.3959L27.6198 76.4949C28.5573 76.9636 29.5573 77.198 30.5937 77.198C32.6354 77.198 34.5104 76.2813 35.7604 74.7397L38.1875 76.5574C39.5156 77.5574 41.0781 78.073 42.6719 78.073C43.4271 78.073 44.1927 77.9532 44.9427 77.7188C47.2812 76.9897 49.0625 75.2397 49.8385 72.9168L50.2917 71.5626C50.3854 71.2813 50.4323 70.9897 50.4323 70.698V67.1199C50.4323 65.9636 51.2135 64.9584 52.3385 64.6772L52.7708 64.5678C54.9583 64.0209 56.7187 62.4272 57.474 60.3022C58.224 58.1772 57.8698 55.8334 56.5156 54.0313L54.4479 51.2709C52.974 49.3126 51.2917 47.5417 49.4375 46.0001L45.9375 43.0834C51.6875 39.6147 58.4167 37.6147 65.6042 37.6147ZM62.4115 86.4324C62.0312 86.2761 61.6719 86.0782 61.3437 85.8282L58.9948 84.0678C56.5833 82.2605 53.5208 81.6199 50.5885 82.3126C47.6562 83.0053 45.1979 84.948 43.8542 87.6407L43.4844 88.3751C42.7865 89.7761 42.4167 91.3438 42.4167 92.9063V98.323C42.4167 101.026 43.4687 103.573 45.3854 105.484L47.9271 108.026C49.8385 109.943 52.4531 110.99 55.1094 110.99C55.9271 110.99 56.7448 110.891 57.5469 110.693L62.8281 109.37C63.1979 109.281 63.5781 109.234 63.9583 109.234H66.8073C69.8542 109.234 72.7083 107.88 74.6406 105.526C76.5729 103.167 77.3385 100.099 76.7396 97.1147C76.0677 93.7449 73.7604 90.9688 70.5677 89.6928L62.4115 86.4324ZM58.0729 90.1928L55.7187 88.4324C54.6094 87.599 53.1927 87.3022 51.8385 87.6199C50.4896 87.9428 49.3542 88.8386 48.7344 90.0834L48.3646 90.8126C48.0417 91.4584 47.875 92.1824 47.875 92.9063V98.323C47.875 99.5678 48.3594 100.745 49.2448 101.625L51.7812 104.167C52.9375 105.323 54.6406 105.792 56.224 105.396L61.5052 104.078C62.3073 103.875 63.1302 103.776 63.9583 103.776H66.8073C68.2135 103.776 69.5312 103.151 70.4219 102.063C71.3125 100.979 71.6667 99.5626 71.3906 98.1824C71.0781 96.6303 70.0156 95.349 68.5417 94.7605L60.3854 91.4949C59.5625 91.1668 58.7812 90.7292 58.0729 90.1928ZM90.724 96.323C88.4479 97.2345 87.1823 99.7136 87.776 102.089L88.7917 106.141C92.6823 103.162 95.9844 99.448 98.4948 95.2136C97.9635 95.1615 97.4323 95.1355 96.901 95.1355C94.776 95.1355 92.6979 95.5365 90.724 96.323ZM131.083 23.974V66.8282C131.083 85.6199 125.229 103.573 114.146 118.75C103.068 133.927 87.7552 144.979 69.8542 150.703L65.6042 152.063L61.3594 150.703C43.4583 144.979 28.1458 133.927 17.0625 118.75C5.98437 103.573 0.130203 85.6199 0.130203 66.8282V23.974H8.36458C23.1667 23.974 37.4271 19.5209 49.5937 11.099L65.6042 0.010498L81.6198 11.099C93.7865 19.5209 108.047 23.974 122.849 23.974H131.083ZM125.625 32.1615C125.625 30.6563 124.406 29.4324 122.901 29.4324C104.161 29.4324 85.7865 22.9845 71.1562 11.2813L67.3125 8.20321C66.3125 7.40633 64.901 7.40633 63.901 8.20321L60.0573 11.2813C45.4271 22.9845 27.0521 29.4324 8.3125 29.4324C6.80729 29.4324 5.58854 30.6563 5.58854 32.1615V65.2605C5.58854 99.2813 25.7917 129.922 57.0625 143.323L64.5312 146.526C64.875 146.672 65.2396 146.745 65.6042 146.745C65.974 146.745 66.3385 146.672 66.6823 146.526L74.151 143.323C105.422 129.922 125.625 99.2813 125.625 65.2605V32.1615ZM67.75 15.5417C82.6354 27.448 101.151 34.2501 120.172 34.8438V65.2605C120.172 97.0938 101.266 125.766 72.0052 138.307L65.6042 141.047L59.2083 138.307C29.9479 125.766 11.0417 97.0938 11.0417 65.2605V34.8438C30.0625 34.2501 48.5781 27.448 63.4635 15.5417L65.6042 13.8282L67.75 15.5417ZM65.6042 32.1615C41.5365 32.1615 21.9531 51.7397 21.9531 75.8126C21.9531 99.8803 41.5365 119.464 65.6042 119.464C89.6771 119.464 109.255 99.8803 109.255 75.8126C109.255 51.7397 89.6771 32.1615 65.6042 32.1615Z" fill="white"/>
</mask>
<g mask="url(#mask1_5_463)">
<path d="M0.130203 0.010498V152H131.073V0.010498H0.130203Z" fill="url(#paint0_linear_5_463)"/>
</g>
</g>
<path d="M166.271 64.8125C162.047 64.8125 158.234 63.9271 154.833 62.1667C151.443 60.3906 148.792 57.9115 146.875 54.7292C144.958 51.5521 144 47.9375 144 43.8958C144 39.8698 144.958 36.2656 146.875 33.0833C148.792 29.9062 151.443 27.4323 154.833 25.6667C158.234 23.8906 162.047 23 166.271 23C170.156 23 173.625 23.6875 176.667 25.0625C179.708 26.4271 182.219 28.4062 184.208 31L175.688 38.5833C173.214 35.4583 170.302 33.8958 166.958 33.8958C164.135 33.8958 161.865 34.8073 160.146 36.625C158.438 38.4323 157.583 40.8542 157.583 43.8958C157.583 46.9531 158.438 49.3854 160.146 51.1875C161.865 52.9948 164.135 53.8958 166.958 53.8958C170.302 53.8958 173.214 52.3333 175.688 49.2083L184.208 56.8125C182.219 59.3958 179.708 61.375 176.667 62.75C173.625 64.125 170.156 64.8125 166.271 64.8125Z" fill="#89F1FF"/>
<path d="M188.184 23.9167H201.663V63.8959H188.184V23.9167Z" fill="#89F1FF"/>
<path d="M240.179 42.9792C242.539 43.8542 244.367 45.1355 245.658 46.8126C246.95 48.4949 247.596 50.5157 247.596 52.8751C247.596 56.3751 246.143 59.0938 243.242 61.0209C240.351 62.9376 236.169 63.8959 230.7 63.8959H208.179V23.9167H229.554C234.888 23.9167 238.914 24.8699 241.638 26.7709C244.356 28.6772 245.721 31.2032 245.721 34.3542C245.721 36.2292 245.247 37.9115 244.304 39.3959C243.372 40.8855 241.997 42.0782 240.179 42.9792ZM221.429 33.3334V39.2709H227.721C230.648 39.2709 232.117 38.2865 232.117 36.3126C232.117 34.3282 230.648 33.3334 227.721 33.3334H221.429ZM229.554 54.4792C232.523 54.4792 234.013 53.4324 234.013 51.3334C234.013 49.2397 232.523 48.1876 229.554 48.1876H221.429V54.4792H229.554Z" fill="#89F1FF"/>
<path d="M285.59 53.7292V63.8959H252.34V23.9167H284.84V34.0834H265.59V38.7709H282.506V48.4792H265.59V53.7292H285.59Z" fill="#89F1FF"/>
<path d="M307.933 53.8334H304.266V63.8959H290.787V23.9167H310.037C313.73 23.9167 316.943 24.5313 319.683 25.7501C322.433 26.9584 324.548 28.7084 326.037 31.0001C327.522 33.2813 328.266 35.9376 328.266 38.9792C328.266 41.8438 327.621 44.3438 326.329 46.4792C325.037 48.6042 323.167 50.3022 320.725 51.5626L329.121 63.8959H314.725L307.933 53.8334ZM314.662 38.9792C314.662 37.5105 314.204 36.3647 313.287 35.5417C312.381 34.724 311.016 34.3126 309.183 34.3126H304.266V43.6667H309.183C311.016 43.6667 312.381 43.2605 313.287 42.4376C314.204 41.6199 314.662 40.4688 314.662 38.9792Z" fill="#89F1FF"/>
<path d="M154.75 72.637C156.943 72.637 158.844 73.0068 160.458 73.7411C162.083 74.4651 163.333 75.5015 164.208 76.8453C165.083 78.1943 165.521 79.7932 165.521 81.637C165.521 83.4599 165.083 85.0484 164.208 86.4078C163.333 87.7724 162.083 88.814 160.458 89.5328C158.844 90.2568 156.943 90.6161 154.75 90.6161H149.75V97.4495H144V72.637H154.75ZM154.438 85.9286C156.156 85.9286 157.464 85.564 158.354 84.8245C159.255 84.0745 159.708 83.012 159.708 81.637C159.708 80.2359 159.255 79.1682 158.354 78.4286C157.464 77.6786 156.156 77.3036 154.438 77.3036H149.75V85.9286H154.438Z" fill="white"/>
<path d="M185.948 97.4495L181.177 90.5328H175.885V97.4495H170.135V72.637H180.885C183.078 72.637 184.979 73.0068 186.593 73.7411C188.218 74.4651 189.468 75.5015 190.343 76.8453C191.218 78.1943 191.656 79.7932 191.656 81.637C191.656 83.4859 191.208 85.0745 190.323 86.4078C189.448 87.7411 188.187 88.762 186.552 89.4703L192.135 97.4495H185.948ZM185.843 81.637C185.843 80.2359 185.39 79.1682 184.489 78.4286C183.599 77.6786 182.291 77.3036 180.573 77.3036H175.885V85.9703H180.573C182.291 85.9703 183.599 85.5953 184.489 84.8453C185.39 84.0849 185.843 83.012 185.843 81.637Z" fill="white"/>
<path d="M208.219 97.8661C205.646 97.8661 203.328 97.314 201.261 96.1995C199.188 95.0901 197.563 93.564 196.386 91.6161C195.219 89.6734 194.636 87.4807 194.636 85.0328C194.636 82.6057 195.219 80.4182 196.386 78.4703C197.563 76.512 199.188 74.9807 201.261 73.8661C203.328 72.7568 205.646 72.1995 208.219 72.1995C210.802 72.1995 213.12 72.7568 215.177 73.8661C217.229 74.9807 218.849 76.512 220.031 78.4703C221.209 80.4182 221.802 82.6057 221.802 85.0328C221.802 87.4807 221.209 89.6734 220.031 91.6161C218.849 93.564 217.229 95.0901 215.177 96.1995C213.12 97.314 210.802 97.8661 208.219 97.8661ZM208.219 92.9911C209.688 92.9911 211.016 92.6578 212.198 91.9911C213.375 91.314 214.302 90.3661 214.969 89.1578C215.646 87.9495 215.99 86.5745 215.99 85.0328C215.99 83.5068 215.646 82.137 214.969 80.9286C214.302 79.7203 213.375 78.7828 212.198 78.1161C211.016 77.439 209.688 77.0953 208.219 77.0953C206.761 77.0953 205.438 77.439 204.261 78.1161C203.078 78.7828 202.146 79.7203 201.469 80.9286C200.802 82.137 200.469 83.5068 200.469 85.0328C200.469 86.5745 200.802 87.9495 201.469 89.1578C202.146 90.3661 203.078 91.314 204.261 91.9911C205.438 92.6578 206.761 92.9911 208.219 92.9911Z" fill="white"/>
<path d="M231.272 77.3036H223.334V72.637H244.959V77.3036H237.022V97.4495H231.272V77.3036Z" fill="white"/>
<path d="M267.269 92.8453V97.4495H248.04V72.637H266.811V77.2411H253.749V82.637H265.269V87.0953H253.749V92.8453H267.269Z" fill="white"/>
<path d="M283.709 97.8661C281.177 97.8661 278.896 97.3193 276.855 96.2203C274.813 95.1265 273.198 93.6057 272.021 91.6578C270.855 89.6995 270.271 87.4911 270.271 85.0328C270.271 82.5745 270.855 80.3765 272.021 78.4286C273.198 76.4703 274.813 74.9443 276.855 73.8453C278.896 72.7515 281.193 72.1995 283.75 72.1995C285.901 72.1995 287.844 72.5849 289.584 73.3453C291.318 74.0953 292.776 75.1786 293.959 76.5953L290.271 80.012C288.589 78.0693 286.511 77.0953 284.042 77.0953C282.5 77.0953 281.125 77.439 279.917 78.1161C278.719 78.7828 277.782 79.7203 277.105 80.9286C276.438 82.137 276.105 83.5068 276.105 85.0328C276.105 86.5745 276.438 87.9495 277.105 89.1578C277.782 90.3661 278.719 91.314 279.917 91.9911C281.125 92.6578 282.5 92.9911 284.042 92.9911C286.511 92.9911 288.589 92.0068 290.271 90.0328L293.959 93.4495C292.776 94.8818 291.313 95.9807 289.563 96.7411C287.813 97.4911 285.86 97.8661 283.709 97.8661ZM281.792 105.679C281.177 105.679 280.573 105.606 279.98 105.47C279.396 105.345 278.901 105.163 278.5 104.929L279.355 102.554C280.105 102.913 280.865 103.095 281.646 103.095C282.881 103.095 283.5 102.71 283.5 101.949C283.5 101.267 282.922 100.929 281.771 100.929H280.563L281.48 97.1578H284.417L283.917 99.2203C284.959 99.3453 285.73 99.6682 286.23 100.199C286.74 100.726 287 101.377 287 102.158C287 103.252 286.526 104.116 285.584 104.741C284.636 105.366 283.375 105.679 281.792 105.679Z" fill="white"/>
<path d="M314.18 92.1371H302.659L300.451 97.4496H294.576L305.638 72.6371H311.305L322.409 97.4496H316.367L314.18 92.1371ZM312.367 87.7621L308.43 78.2621L304.492 87.7621H312.367ZM311.117 70.7205C310.477 70.7205 309.914 70.5955 309.43 70.3455C308.94 70.0955 308.409 69.7569 307.826 69.3246C307.451 69.0486 307.138 68.8403 306.888 68.6996C306.638 68.5486 306.393 68.4705 306.159 68.4705C305.659 68.4705 305.253 68.6475 304.951 68.9913C304.643 69.3403 304.477 69.835 304.451 70.4705H301.659C301.701 68.8871 302.086 67.6319 302.826 66.6996C303.576 65.7569 304.565 65.283 305.805 65.283C306.414 65.283 306.961 65.408 307.451 65.658C307.935 65.908 308.482 66.2569 309.097 66.6996C309.472 66.9913 309.784 67.21 310.034 67.3455C310.284 67.4861 310.524 67.5538 310.763 67.5538C311.232 67.5538 311.628 67.3871 311.951 67.0538C312.268 66.71 312.44 66.2361 312.472 65.6371H315.263C315.222 67.1788 314.826 68.4184 314.076 69.3455C313.336 70.2621 312.352 70.7205 311.117 70.7205Z" fill="white"/>
<path d="M337.009 97.8661C334.436 97.8661 332.118 97.314 330.05 96.1995C327.977 95.0901 326.352 93.564 325.175 91.6161C324.009 89.6734 323.425 87.4807 323.425 85.0328C323.425 82.6057 324.009 80.4182 325.175 78.4703C326.352 76.512 327.977 74.9807 330.05 73.8661C332.118 72.7568 334.436 72.1995 337.009 72.1995C339.592 72.1995 341.91 72.7568 343.967 73.8661C346.019 74.9807 347.639 76.512 348.821 78.4703C349.998 80.4182 350.592 82.6057 350.592 85.0328C350.592 87.4807 349.998 89.6734 348.821 91.6161C347.639 93.564 346.019 95.0901 343.967 96.1995C341.91 97.314 339.592 97.8661 337.009 97.8661ZM337.009 92.9911C338.477 92.9911 339.806 92.6578 340.988 91.9911C342.165 91.314 343.092 90.3661 343.759 89.1578C344.436 87.9495 344.78 86.5745 344.78 85.0328C344.78 83.5068 344.436 82.137 343.759 80.9286C343.092 79.7203 342.165 78.7828 340.988 78.1161C339.806 77.439 338.477 77.0953 337.009 77.0953C335.55 77.0953 334.227 77.439 333.05 78.1161C331.868 78.7828 330.936 79.7203 330.259 80.9286C329.592 82.137 329.259 83.5068 329.259 85.0328C329.259 86.5745 329.592 87.9495 330.259 89.1578C330.936 90.3661 331.868 91.314 333.05 91.9911C334.227 92.6578 335.55 92.9911 337.009 92.9911Z" fill="white"/>
<path d="M147.476 111.45C148.195 111.45 148.757 111.628 149.163 111.971C149.58 112.305 149.788 112.773 149.788 113.367C149.788 113.982 149.58 114.461 149.163 114.805C148.757 115.138 148.195 115.305 147.476 115.305H145.976V117.075H145.372V111.45H147.476ZM147.455 114.784C148.023 114.784 148.455 114.659 148.747 114.409C149.038 114.159 149.184 113.815 149.184 113.367C149.184 112.924 149.038 112.586 148.747 112.346C148.455 112.096 148.023 111.971 147.455 111.971H145.976V114.784H147.455Z" fill="white"/>
<path d="M158.565 117.075L157.274 115.263C157.117 115.279 156.966 115.284 156.815 115.284H155.315V117.075H154.711V111.45H156.815C157.534 111.45 158.096 111.628 158.503 111.971C158.919 112.305 159.128 112.773 159.128 113.367C159.128 113.815 159.008 114.19 158.774 114.492C158.55 114.799 158.237 115.013 157.836 115.138L159.211 117.075H158.565ZM156.794 114.784C157.362 114.784 157.794 114.659 158.086 114.409C158.378 114.159 158.524 113.815 158.524 113.367C158.524 112.924 158.378 112.586 158.086 112.346C157.794 112.096 157.362 111.971 156.794 111.971H155.315V114.784H156.794Z" fill="white"/>
<path d="M166.549 117.117C165.992 117.117 165.486 116.992 165.028 116.742C164.58 116.492 164.226 116.154 163.966 115.721C163.716 115.294 163.591 114.805 163.591 114.263C163.591 113.721 163.716 113.237 163.966 112.805C164.226 112.362 164.58 112.013 165.028 111.763C165.486 111.513 165.992 111.388 166.549 111.388C167.101 111.388 167.601 111.513 168.049 111.763C168.507 112.013 168.861 112.362 169.111 112.805C169.372 113.237 169.507 113.721 169.507 114.263C169.507 114.805 169.372 115.299 169.111 115.742C168.861 116.174 168.507 116.513 168.049 116.763C167.601 117.003 167.101 117.117 166.549 117.117ZM166.549 116.596C166.992 116.596 167.393 116.503 167.757 116.305C168.117 116.096 168.393 115.82 168.591 115.471C168.799 115.112 168.903 114.711 168.903 114.263C168.903 113.82 168.799 113.424 168.591 113.075C168.393 112.716 168.117 112.44 167.757 112.242C167.393 112.034 166.992 111.93 166.549 111.93C166.101 111.93 165.7 112.034 165.341 112.242C164.976 112.44 164.695 112.716 164.486 113.075C164.278 113.424 164.174 113.82 164.174 114.263C164.174 114.711 164.278 115.112 164.486 115.471C164.695 115.82 164.976 116.096 165.341 116.305C165.7 116.503 166.101 116.596 166.549 116.596Z" fill="white"/>
<path d="M175.506 111.971H173.527V111.45H178.069V111.971H176.09V117.075H175.506V111.971Z" fill="white"/>
<path d="M186.563 116.555V117.075H182.584V111.45H186.438V111.971H183.188V113.971H186.084V114.471H183.188V116.555H186.563Z" fill="white"/>
<path d="M195.488 114.263H196.071V116.409C195.806 116.648 195.493 116.825 195.134 116.95C194.769 117.065 194.394 117.117 194.009 117.117C193.436 117.117 192.926 117.003 192.467 116.763C192.019 116.513 191.665 116.174 191.405 115.742C191.155 115.299 191.03 114.805 191.03 114.263C191.03 113.721 191.155 113.237 191.405 112.805C191.665 112.362 192.019 112.013 192.467 111.763C192.926 111.513 193.436 111.388 194.009 111.388C194.436 111.388 194.827 111.461 195.176 111.596C195.535 111.737 195.842 111.94 196.092 112.2L195.717 112.596C195.269 112.154 194.707 111.93 194.03 111.93C193.571 111.93 193.155 112.034 192.78 112.242C192.415 112.44 192.134 112.716 191.926 113.075C191.717 113.424 191.613 113.82 191.613 114.263C191.613 114.711 191.717 115.112 191.926 115.471C192.134 115.82 192.415 116.096 192.78 116.305C193.155 116.503 193.571 116.596 194.03 116.596C194.597 116.596 195.082 116.45 195.488 116.159V114.263Z" fill="white"/>
<path d="M205.29 116.555V117.075H201.311V111.45H205.165V111.971H201.915V113.971H204.811V114.471H201.915V116.555H205.29Z" fill="white"/>
<path d="M214.965 111.45V117.075H214.465L210.861 112.513V117.075H210.256V111.45H210.756L214.381 116.013V111.45H214.965Z" fill="white"/>
<path d="M220.359 111.45H222.651C223.245 111.45 223.766 111.57 224.213 111.805C224.672 112.044 225.026 112.378 225.276 112.805C225.536 113.237 225.672 113.721 225.672 114.263C225.672 114.805 225.536 115.294 225.276 115.721C225.026 116.154 224.672 116.487 224.213 116.721C223.766 116.961 223.245 117.075 222.651 117.075H220.359V111.45ZM222.609 116.555C223.109 116.555 223.536 116.461 223.901 116.263C224.276 116.07 224.568 115.799 224.776 115.45C224.984 115.107 225.088 114.711 225.088 114.263C225.088 113.805 224.984 113.409 224.776 113.075C224.568 112.732 224.276 112.461 223.901 112.263C223.536 112.07 223.109 111.971 222.609 111.971H220.963V116.555H222.609Z" fill="white"/>
<path d="M233.025 117.117C232.468 117.117 231.962 116.992 231.504 116.742C231.056 116.492 230.702 116.154 230.442 115.721C230.192 115.294 230.067 114.805 230.067 114.263C230.067 113.721 230.192 113.237 230.442 112.805C230.702 112.362 231.056 112.013 231.504 111.763C231.962 111.513 232.468 111.388 233.025 111.388C233.577 111.388 234.077 111.513 234.525 111.763C234.983 112.013 235.337 112.362 235.587 112.805C235.848 113.237 235.983 113.721 235.983 114.263C235.983 114.805 235.848 115.299 235.587 115.742C235.337 116.174 234.983 116.513 234.525 116.763C234.077 117.003 233.577 117.117 233.025 117.117ZM233.025 116.596C233.468 116.596 233.869 116.503 234.233 116.305C234.593 116.096 234.869 115.82 235.067 115.471C235.275 115.112 235.379 114.711 235.379 114.263C235.379 113.82 235.275 113.424 235.067 113.075C234.869 112.716 234.593 112.44 234.233 112.242C233.869 112.034 233.468 111.93 233.025 111.93C232.577 111.93 232.176 112.034 231.817 112.242C231.452 112.44 231.171 112.716 230.962 113.075C230.754 113.424 230.65 113.82 230.65 114.263C230.65 114.711 230.754 115.112 230.962 115.471C231.171 115.82 231.452 116.096 231.817 116.305C232.176 116.503 232.577 116.596 233.025 116.596Z" fill="white"/>
<path d="M250.073 115.575H246.948L246.261 117.075H245.657L248.219 111.45H248.803L251.386 117.075H250.761L250.073 115.575ZM249.865 115.096L248.511 112.075L247.157 115.096H249.865Z" fill="white"/>
<path d="M263.996 117.117C263.438 117.117 262.938 117.003 262.496 116.763C262.048 116.513 261.694 116.174 261.433 115.742C261.183 115.299 261.058 114.805 261.058 114.263C261.058 113.721 261.183 113.237 261.433 112.805C261.694 112.362 262.048 112.013 262.496 111.763C262.954 111.513 263.459 111.388 264.017 111.388C264.433 111.388 264.813 111.466 265.162 111.617C265.522 111.758 265.829 111.961 266.079 112.221L265.683 112.596C265.251 112.154 264.704 111.93 264.037 111.93C263.579 111.93 263.168 112.034 262.808 112.242C262.444 112.44 262.162 112.716 261.954 113.075C261.746 113.424 261.642 113.82 261.642 114.263C261.642 114.711 261.746 115.112 261.954 115.471C262.162 115.82 262.444 116.096 262.808 116.305C263.168 116.503 263.579 116.596 264.037 116.596C264.704 116.596 265.251 116.367 265.683 115.909L266.079 116.305C265.829 116.57 265.522 116.773 265.162 116.909C264.798 117.049 264.412 117.117 263.996 117.117Z" fill="white"/>
<path d="M273.364 117.117C272.807 117.117 272.301 116.992 271.843 116.742C271.395 116.492 271.041 116.154 270.781 115.721C270.531 115.294 270.406 114.805 270.406 114.263C270.406 113.721 270.531 113.237 270.781 112.805C271.041 112.362 271.395 112.013 271.843 111.763C272.301 111.513 272.807 111.388 273.364 111.388C273.916 111.388 274.416 111.513 274.864 111.763C275.322 112.013 275.676 112.362 275.926 112.805C276.187 113.237 276.322 113.721 276.322 114.263C276.322 114.805 276.187 115.299 275.926 115.742C275.676 116.174 275.322 116.513 274.864 116.763C274.416 117.003 273.916 117.117 273.364 117.117ZM273.364 116.596C273.807 116.596 274.208 116.503 274.572 116.305C274.932 116.096 275.208 115.82 275.406 115.471C275.614 115.112 275.718 114.711 275.718 114.263C275.718 113.82 275.614 113.424 275.406 113.075C275.208 112.716 274.932 112.44 274.572 112.242C274.208 112.034 273.807 111.93 273.364 111.93C272.916 111.93 272.515 112.034 272.156 112.242C271.791 112.44 271.51 112.716 271.301 113.075C271.093 113.424 270.989 113.82 270.989 114.263C270.989 114.711 271.093 115.112 271.301 115.471C271.51 115.82 271.791 116.096 272.156 116.305C272.515 116.503 272.916 116.596 273.364 116.596Z" fill="white"/>
<path d="M287.071 111.45V117.075H286.488V112.575L284.28 116.367H284.009L281.78 112.596V117.075H281.217V111.45H281.717L284.155 115.617L286.571 111.45H287.071Z" fill="white"/>
<path d="M294.732 117.117C293.993 117.117 293.425 116.909 293.024 116.492C292.618 116.075 292.42 115.471 292.42 114.68V111.45H293.003V114.638C293.003 115.305 293.149 115.799 293.441 116.117C293.743 116.44 294.175 116.596 294.732 116.596C295.284 116.596 295.711 116.44 296.003 116.117C296.305 115.799 296.461 115.305 296.461 114.638V111.45H297.045V114.68C297.045 115.471 296.836 116.075 296.42 116.492C296.014 116.909 295.451 117.117 294.732 117.117Z" fill="white"/>
<path d="M307.104 111.45V117.075H306.604L303 112.513V117.075H302.395V111.45H302.895L306.52 116.013V111.45H307.104Z" fill="white"/>
<path d="M312.498 111.45H313.102V117.075H312.498V111.45Z" fill="white"/>
<path d="M318.494 111.45H320.786C321.379 111.45 321.9 111.57 322.348 111.805C322.807 112.044 323.161 112.378 323.411 112.805C323.671 113.237 323.807 113.721 323.807 114.263C323.807 114.805 323.671 115.294 323.411 115.721C323.161 116.154 322.807 116.487 322.348 116.721C321.9 116.961 321.379 117.075 320.786 117.075H318.494V111.45ZM320.744 116.555C321.244 116.555 321.671 116.461 322.036 116.263C322.411 116.07 322.702 115.799 322.911 115.45C323.119 115.107 323.223 114.711 323.223 114.263C323.223 113.805 323.119 113.409 322.911 113.075C322.702 112.732 322.411 112.461 322.036 112.263C321.671 112.07 321.244 111.971 320.744 111.971H319.098V116.555H320.744Z" fill="white"/>
<path d="M332.222 115.575H329.097L328.41 117.075H327.806L330.368 111.45H330.951L333.535 117.075H332.91L332.222 115.575ZM332.014 115.096L330.66 112.075L329.306 115.096H332.014Z" fill="white"/>
<path d="M338.033 111.45H340.324C340.918 111.45 341.439 111.57 341.887 111.805C342.345 112.044 342.699 112.378 342.949 112.805C343.21 113.237 343.345 113.721 343.345 114.263C343.345 114.805 343.21 115.294 342.949 115.721C342.699 116.154 342.345 116.487 341.887 116.721C341.439 116.961 340.918 117.075 340.324 117.075H338.033V111.45ZM340.283 116.555C340.783 116.555 341.21 116.461 341.574 116.263C341.949 116.07 342.241 115.799 342.449 115.45C342.658 115.107 342.762 114.711 342.762 114.263C342.762 113.805 342.658 113.409 342.449 113.075C342.241 112.732 341.949 112.461 341.574 112.263C341.21 112.07 340.783 111.971 340.283 111.971H338.637V116.555H340.283Z" fill="white"/>
<path d="M352.219 116.555V117.075H348.24V111.45H352.094V111.971H348.844V113.971H351.74V114.471H348.844V116.555H352.219Z" fill="white"/>
<path d="M147.556 127.833C146.998 127.833 146.498 127.719 146.056 127.479C145.608 127.229 145.254 126.891 144.993 126.458C144.743 126.016 144.618 125.521 144.618 124.979C144.618 124.438 144.743 123.953 144.993 123.521C145.254 123.078 145.608 122.729 146.056 122.479C146.514 122.229 147.019 122.104 147.577 122.104C147.993 122.104 148.373 122.182 148.722 122.333C149.082 122.474 149.389 122.677 149.639 122.938L149.243 123.313C148.811 122.87 148.264 122.646 147.597 122.646C147.139 122.646 146.728 122.75 146.368 122.958C146.004 123.156 145.722 123.432 145.514 123.792C145.306 124.141 145.202 124.537 145.202 124.979C145.202 125.427 145.306 125.828 145.514 126.188C145.722 126.537 146.004 126.813 146.368 127.021C146.728 127.219 147.139 127.313 147.597 127.313C148.264 127.313 148.811 127.083 149.243 126.625L149.639 127.021C149.389 127.287 149.082 127.49 148.722 127.625C148.358 127.766 147.972 127.833 147.556 127.833Z" fill="white"/>
<path d="M156.924 127.833C156.367 127.833 155.861 127.708 155.403 127.458C154.955 127.208 154.601 126.87 154.341 126.438C154.091 126.01 153.966 125.521 153.966 124.979C153.966 124.438 154.091 123.953 154.341 123.521C154.601 123.078 154.955 122.729 155.403 122.479C155.861 122.229 156.367 122.104 156.924 122.104C157.476 122.104 157.976 122.229 158.424 122.479C158.882 122.729 159.236 123.078 159.486 123.521C159.747 123.953 159.882 124.438 159.882 124.979C159.882 125.521 159.747 126.016 159.486 126.458C159.236 126.891 158.882 127.229 158.424 127.479C157.976 127.719 157.476 127.833 156.924 127.833ZM156.924 127.313C157.367 127.313 157.768 127.219 158.132 127.021C158.492 126.813 158.768 126.537 158.966 126.188C159.174 125.828 159.278 125.427 159.278 124.979C159.278 124.537 159.174 124.141 158.966 123.792C158.768 123.432 158.492 123.156 158.132 122.958C157.768 122.75 157.367 122.646 156.924 122.646C156.476 122.646 156.075 122.75 155.716 122.958C155.351 123.156 155.07 123.432 154.861 123.792C154.653 124.141 154.549 124.537 154.549 124.979C154.549 125.427 154.653 125.828 154.861 126.188C155.07 126.537 155.351 126.813 155.716 127.021C156.075 127.219 156.476 127.313 156.924 127.313Z" fill="white"/>
<path d="M169.486 122.167V127.792H168.986L165.382 123.229V127.792H164.777V122.167H165.277L168.902 126.729V122.167H169.486Z" fill="white"/>
<path d="M175.984 122.688H174.005V122.167H178.547V122.688H176.568V127.792H175.984V122.688Z" fill="white"/>
<path d="M186.916 127.792L185.625 125.979C185.468 125.995 185.317 126 185.166 126H183.666V127.792H183.062V122.167H185.166C185.885 122.167 186.448 122.344 186.854 122.688C187.27 123.021 187.479 123.49 187.479 124.083C187.479 124.531 187.359 124.906 187.125 125.208C186.901 125.516 186.588 125.729 186.187 125.854L187.562 127.792H186.916ZM185.145 125.5C185.713 125.5 186.145 125.375 186.437 125.125C186.729 124.875 186.875 124.531 186.875 124.083C186.875 123.641 186.729 123.302 186.437 123.063C186.145 122.813 185.713 122.688 185.145 122.688H183.666V125.5H185.145Z" fill="white"/>
<path d="M195.962 126.292H192.837L192.15 127.792H191.546L194.108 122.167H194.692L197.275 127.792H196.65L195.962 126.292ZM195.754 125.813L194.4 122.792L193.046 125.813H195.754Z" fill="white"/>
<path d="M210.968 126.292H207.843L207.155 127.792H206.551L209.114 122.167H209.697L212.28 127.792H211.655L210.968 126.292ZM210.76 125.813L209.405 122.792L208.051 125.813H210.76Z" fill="white"/>
<path d="M217.883 122.688H215.903V122.167H220.445V122.688H218.466V127.792H217.883V122.688Z" fill="white"/>
<path d="M228.481 126.292H225.356L224.669 127.792H224.064L226.627 122.167H227.21L229.794 127.792H229.169L228.481 126.292ZM228.273 125.813L226.919 122.792L225.564 125.813H228.273Z" fill="white"/>
<path d="M239.958 128.271C239.792 128.479 239.588 128.635 239.354 128.75C239.114 128.859 238.864 128.917 238.604 128.917C238.271 128.917 237.948 128.833 237.646 128.667C237.354 128.5 237.021 128.219 236.646 127.833C236.104 127.818 235.614 127.688 235.187 127.438C234.755 127.188 234.417 126.849 234.167 126.417C233.917 125.99 233.792 125.51 233.792 124.979C233.792 124.438 233.917 123.953 234.167 123.521C234.427 123.078 234.781 122.729 235.229 122.479C235.687 122.229 236.193 122.104 236.75 122.104C237.302 122.104 237.802 122.229 238.25 122.479C238.708 122.729 239.062 123.078 239.312 123.521C239.573 123.953 239.708 124.438 239.708 124.979C239.708 125.453 239.609 125.891 239.417 126.292C239.219 126.682 238.943 127.01 238.583 127.271C238.234 127.521 237.833 127.698 237.375 127.792C237.792 128.219 238.198 128.438 238.604 128.438C239.021 128.438 239.375 128.26 239.667 127.917L239.958 128.271ZM234.375 124.979C234.375 125.427 234.479 125.828 234.687 126.188C234.896 126.537 235.177 126.813 235.542 127.021C235.901 127.219 236.302 127.313 236.75 127.313C237.193 127.313 237.594 127.219 237.958 127.021C238.318 126.813 238.594 126.537 238.792 126.188C239 125.828 239.104 125.427 239.104 124.979C239.104 124.537 239 124.141 238.792 123.792C238.594 123.432 238.318 123.156 237.958 122.958C237.594 122.75 237.193 122.646 236.75 122.646C236.302 122.646 235.901 122.75 235.542 122.958C235.177 123.156 234.896 123.432 234.687 123.792C234.479 124.141 234.375 124.537 234.375 124.979Z" fill="white"/>
<path d="M246.874 127.833C246.135 127.833 245.567 127.625 245.166 127.208C244.76 126.792 244.562 126.188 244.562 125.396V122.167H245.145V125.354C245.145 126.021 245.291 126.516 245.583 126.833C245.885 127.156 246.317 127.313 246.874 127.313C247.426 127.313 247.853 127.156 248.145 126.833C248.447 126.516 248.603 126.021 248.603 125.354V122.167H249.187V125.396C249.187 126.188 248.978 126.792 248.562 127.208C248.155 127.625 247.593 127.833 246.874 127.833Z" fill="white"/>
<path d="M258.517 127.271V127.792H254.537V122.167H258.392V122.688H255.142V124.688H258.037V125.188H255.142V127.271H258.517Z" fill="white"/>
<path d="M265.045 127.833C264.613 127.833 264.202 127.771 263.816 127.646C263.441 127.51 263.149 127.328 262.941 127.104L263.17 126.646C263.379 126.854 263.649 127.021 263.983 127.146C264.327 127.271 264.681 127.333 265.045 127.333C265.545 127.333 265.92 127.245 266.17 127.063C266.42 126.87 266.545 126.625 266.545 126.333C266.545 126.115 266.472 125.938 266.337 125.813C266.196 125.677 266.03 125.573 265.837 125.5C265.639 125.417 265.363 125.333 265.004 125.25C264.587 125.141 264.254 125.037 264.004 124.938C263.754 124.844 263.535 124.698 263.358 124.5C263.176 124.292 263.087 124.016 263.087 123.667C263.087 123.375 263.155 123.12 263.295 122.896C263.446 122.662 263.676 122.474 263.983 122.333C264.301 122.182 264.691 122.104 265.149 122.104C265.467 122.104 265.78 122.156 266.087 122.25C266.405 122.333 266.676 122.453 266.899 122.604L266.691 123.083C266.452 122.932 266.202 122.823 265.941 122.75C265.676 122.667 265.41 122.625 265.149 122.625C264.66 122.625 264.295 122.724 264.045 122.917C263.795 123.099 263.67 123.344 263.67 123.646C263.67 123.87 263.738 124.052 263.879 124.188C264.014 124.328 264.181 124.432 264.379 124.5C264.587 124.573 264.863 124.646 265.212 124.729C265.629 124.844 265.962 124.948 266.212 125.042C266.472 125.141 266.691 125.292 266.858 125.5C267.035 125.698 267.129 125.969 267.129 126.313C267.129 126.594 267.051 126.849 266.899 127.083C266.743 127.323 266.509 127.51 266.191 127.646C265.884 127.771 265.504 127.833 265.045 127.833Z" fill="white"/>
<path d="M280.127 127.833C279.57 127.833 279.064 127.708 278.606 127.458C278.158 127.208 277.804 126.87 277.544 126.438C277.294 126.01 277.169 125.521 277.169 124.979C277.169 124.438 277.294 123.953 277.544 123.521C277.804 123.078 278.158 122.729 278.606 122.479C279.064 122.229 279.57 122.104 280.127 122.104C280.679 122.104 281.179 122.229 281.627 122.479C282.085 122.729 282.439 123.078 282.689 123.521C282.95 123.953 283.085 124.438 283.085 124.979C283.085 125.521 282.95 126.016 282.689 126.458C282.439 126.891 282.085 127.229 281.627 127.479C281.179 127.719 280.679 127.833 280.127 127.833ZM280.127 127.313C280.57 127.313 280.971 127.219 281.335 127.021C281.695 126.813 281.971 126.537 282.169 126.188C282.377 125.828 282.481 125.427 282.481 124.979C282.481 124.537 282.377 124.141 282.169 123.792C281.971 123.432 281.695 123.156 281.335 122.958C280.971 122.75 280.57 122.646 280.127 122.646C279.679 122.646 279.278 122.75 278.919 122.958C278.554 123.156 278.273 123.432 278.064 123.792C277.856 124.141 277.752 124.537 277.752 124.979C277.752 125.427 277.856 125.828 278.064 126.188C278.273 126.537 278.554 126.813 278.919 127.021C279.278 127.219 279.679 127.313 280.127 127.313Z" fill="white"/>
<path d="M292.689 122.167V127.792H292.189L288.585 123.229V127.792H287.98V122.167H288.48L292.105 126.729V122.167H292.689Z" fill="white"/>
<path d="M298.083 122.167H298.687V127.271H301.833V127.792H298.083V122.167Z" fill="white"/>
<path d="M306.386 122.167H306.99V127.792H306.386V122.167Z" fill="white"/>
<path d="M317.09 122.167V127.792H316.59L312.986 123.229V127.792H312.381V122.167H312.881L316.506 126.729V122.167H317.09Z" fill="white"/>
<path d="M326.463 127.271V127.792H322.484V122.167H326.338V122.688H323.088V124.688H325.984V125.188H323.088V127.271H326.463Z" fill="white"/>
<defs>
<linearGradient id="paint0_linear_5_463" x1="-11.3064" y1="140.566" x2="130.161" y2="-0.902353" gradientUnits="userSpaceOnUse">
<stop stop-color="#89F1FF"/>
<stop offset="0.125" stop-color="#89F1FF"/>
<stop offset="0.15625" stop-color="#89F1FF"/>
<stop offset="0.171875" stop-color="#89F1FF"/>
<stop offset="0.175781" stop-color="#8AF1FF"/>
<stop offset="0.179687" stop-color="#8BF1FF"/>
<stop offset="0.183594" stop-color="#8DF1FF"/>
<stop offset="0.1875" stop-color="#8EF2FF"/>
<stop offset="0.191406" stop-color="#8FF2FF"/>
<stop offset="0.195312" stop-color="#90F2FF"/>
<stop offset="0.199219" stop-color="#91F2FF"/>
<stop offset="0.203125" stop-color="#93F2FF"/>
<stop offset="0.207031" stop-color="#94F2FF"/>
<stop offset="0.210937" stop-color="#95F2FF"/>
<stop offset="0.214844" stop-color="#96F3FF"/>
<stop offset="0.21875" stop-color="#97F3FF"/>
<stop offset="0.222656" stop-color="#99F3FF"/>
<stop offset="0.226562" stop-color="#9AF3FF"/>
<stop offset="0.230469" stop-color="#9BF3FF"/>
<stop offset="0.234375" stop-color="#9CF3FF"/>
<stop offset="0.238281" stop-color="#9EF3FF"/>
<stop offset="0.242187" stop-color="#9FF4FF"/>
<stop offset="0.246094" stop-color="#A0F4FF"/>
<stop offset="0.25" stop-color="#A1F4FF"/>
<stop offset="0.253906" stop-color="#A2F4FF"/>
<stop offset="0.257812" stop-color="#A4F4FF"/>
<stop offset="0.261719" stop-color="#A5F4FF"/>
<stop offset="0.265625" stop-color="#A6F4FF"/>
<stop offset="0.269531" stop-color="#A7F5FF"/>
<stop offset="0.273438" stop-color="#A9F5FF"/>
<stop offset="0.277344" stop-color="#AAF5FF"/>
<stop offset="0.28125" stop-color="#ABF5FF"/>
<stop offset="0.285156" stop-color="#ACF5FF"/>
<stop offset="0.289062" stop-color="#ADF5FF"/>
<stop offset="0.292969" stop-color="#AFF5FF"/>
<stop offset="0.296875" stop-color="#B0F6FF"/>
<stop offset="0.300781" stop-color="#B1F6FF"/>
<stop offset="0.304687" stop-color="#B2F6FF"/>
<stop offset="0.308594" stop-color="#B3F6FF"/>
<stop offset="0.3125" stop-color="#B5F6FF"/>
<stop offset="0.316406" stop-color="#B6F6FF"/>
<stop offset="0.320312" stop-color="#B7F6FF"/>
<stop offset="0.324219" stop-color="#B8F7FF"/>
<stop offset="0.328125" stop-color="#BAF7FF"/>
<stop offset="0.332031" stop-color="#BBF7FF"/>
<stop offset="0.335937" stop-color="#BCF7FF"/>
<stop offset="0.339844" stop-color="#BDF7FF"/>
<stop offset="0.34375" stop-color="#BEF7FF"/>
<stop offset="0.347656" stop-color="#C0F7FF"/>
<stop offset="0.351562" stop-color="#C1F8FF"/>
<stop offset="0.355469" stop-color="#C2F8FF"/>
<stop offset="0.359375" stop-color="#C3F8FF"/>
<stop offset="0.363281" stop-color="#C4F8FF"/>
<stop offset="0.367187" stop-color="#C6F8FF"/>
<stop offset="0.371094" stop-color="#C7F8FF"/>
<stop offset="0.375" stop-color="#C8F8FF"/>
<stop offset="0.378906" stop-color="#C9F9FF"/>
<stop offset="0.382812" stop-color="#CBF9FF"/>
<stop offset="0.386719" stop-color="#CCF9FF"/>
<stop offset="0.390625" stop-color="#CDF9FF"/>
<stop offset="0.394531" stop-color="#CEF9FF"/>
<stop offset="0.398437" stop-color="#CFF9FF"/>
<stop offset="0.402344" stop-color="#D1F9FF"/>
<stop offset="0.40625" stop-color="#D2FAFF"/>
<stop offset="0.410156" stop-color="#D3FAFF"/>
<stop offset="0.414062" stop-color="#D4FAFF"/>
<stop offset="0.417969" stop-color="#D6FAFF"/>
<stop offset="0.421875" stop-color="#D7FAFF"/>
<stop offset="0.425781" stop-color="#D8FAFF"/>
<stop offset="0.429687" stop-color="#D9FBFF"/>
<stop offset="0.433594" stop-color="#DAFBFF"/>
<stop offset="0.4375" stop-color="#DCFBFF"/>
<stop offset="0.441406" stop-color="#DDFBFF"/>
<stop offset="0.445312" stop-color="#DEFBFF"/>
<stop offset="0.449219" stop-color="#DFFBFF"/>
<stop offset="0.453125" stop-color="#E0FBFF"/>
<stop offset="0.457031" stop-color="#E2FCFF"/>
<stop offset="0.460938" stop-color="#E3FCFF"/>
<stop offset="0.464844" stop-color="#E4FCFF"/>
<stop offset="0.46875" stop-color="#E5FCFF"/>
<stop offset="0.472656" stop-color="#E7FCFF"/>
<stop offset="0.476562" stop-color="#E8FCFF"/>
<stop offset="0.480469" stop-color="#E9FCFF"/>
<stop offset="0.484375" stop-color="#EAFDFF"/>
<stop offset="0.488281" stop-color="#EBFDFF"/>
<stop offset="0.492187" stop-color="#EDFDFF"/>
<stop offset="0.496094" stop-color="#EEFDFF"/>
<stop offset="0.5" stop-color="#EFFDFF"/>
<stop offset="0.503906" stop-color="#F0FDFF"/>
<stop offset="0.507812" stop-color="#F2FDFF"/>
<stop offset="0.511719" stop-color="#F3FEFF"/>
<stop offset="0.515625" stop-color="#F4FEFF"/>
<stop offset="0.519531" stop-color="#F5FEFF"/>
<stop offset="0.523437" stop-color="#F6FEFF"/>
<stop offset="0.527344" stop-color="#F8FEFF"/>
<stop offset="0.53125" stop-color="#F9FEFF"/>
<stop offset="0.535156" stop-color="#FAFEFF"/>
<stop offset="0.539062" stop-color="#FBFFFF"/>
<stop offset="0.542969" stop-color="#FCFFFF"/>
<stop offset="0.546875" stop-color="#FEFFFF"/>
<stop offset="0.550781" stop-color="#FEFFFF"/>
<stop offset="0.554688" stop-color="white"/>
<stop offset="0.5625" stop-color="white"/>
<stop offset="0.625" stop-color="white"/>
<stop offset="0.75" stop-color="white"/>
<stop offset="1" stop-color="white"/>
</linearGradient>
</defs>
</svg>
